<svg xmlns="http://www.w3.org/2000/svg" xmlns:xlink="http://www.w3.org/1999/xlink" id="visual" viewBox="0 0 960 540" width="960" height="540" version="1.1">
    <rect x="0" y="0" width="960" height="540" fill="#901310"/>
    <path d="M806 0L617 0L617 54L680 54L680 108L656 108L656 162L715 162L715 216L653 216L653 270L773 270L773 324L822 324L822 378L822 378L822 432L652 432L652 486L744 486L744 540L0 540L0 486L0 486L0 432L0 432L0 378L0 378L0 324L0 324L0 270L0 270L0 216L0 216L0 162L0 162L0 108L0 108L0 54L0 54L0 0L0 0Z" fill="#b83b38" opacity="0.4"/>
    <path d="M548 0L633 0L633 54L630 54L630 108L534 108L534 162L653 162L653 216L465 216L465 270L646 270L646 324L528 324L528 378L430 378L430 432L507 432L507 486L449 486L449 540L0 540L0 486L0 486L0 432L0 432L0 378L0 378L0 324L0 324L0 270L0 270L0 216L0 216L0 162L0 162L0 108L0 108L0 54L0 54L0 0L0 0Z" fill="#b83b38" opacity="0.6"/>
    <path d="M328 0L440 0L440 54L383 54L383 108L416 108L416 162L358 162L358 216L294 216L294 270L387 270L387 324L388 324L388 378L330 378L330 432L404 432L404 486L456 486L456 540L0 540L0 486L0 486L0 432L0 432L0 378L0 378L0 324L0 324L0 270L0 270L0 216L0 216L0 162L0 162L0 108L0 108L0 54L0 54L0 0L0 0Z" fill="#b83b38" opacity="0.8"/>
    <path d="M175 0L108 0L108 54L150 54L150 108L256 108L256 162L278 162L278 216L263 216L263 270L230 270L230 324L128 324L128 378L265 378L265 432L287 432L287 486L232 486L232 540L0 540L0 486L0 486L0 432L0 432L0 378L0 378L0 324L0 324L0 270L0 270L0 216L0 216L0 162L0 162L0 108L0 108L0 54L0 54L0 0L0 0Z" fill="#b83b38" opacity="1"/>
</svg>